<svg xmlns="http://www.w3.org/2000/svg" version="1.1" xmlns:xlink="http://www.w3.org/1999/xlink" xmlns:svgjs="http://svgjs.dev/svgjs" width="2000" height="1500" viewBox="0 0 2000 1500"><rect width="2000" height="1500" fill="#000000"></rect><g transform="matrix(0.75,0,0,0.75,249.2911322058244,137.37145748987848)"><svg viewBox="0 0 302 247" data-background-color="#21232b" preserveAspectRatio="xMidYMid meet" height="1635" width="2000" xmlns="http://www.w3.org/2000/svg" xmlns:xlink="http://www.w3.org/1999/xlink"><g id="tight-bounds" transform="matrix(1,0,0,1,0.14271871589403418,-0.09999999999999432)"><svg viewBox="0 0 301.71456256821193 247.2" height="247.2" width="301.71456256821193"><g><svg viewBox="0 0 395.52 324.05642991758305" height="247.2" width="301.71456256821193"><g transform="matrix(1,0,0,1,0,181.4621096758912)"><svg viewBox="0 0 395.52 142.5943202416918" height="142.5943202416918" width="395.52"><g id="textblocktransform"><svg viewBox="0 0 395.52 142.5943202416918" height="142.5943202416918" width="395.52" id="textblock"><g><svg viewBox="0 0 395.52 142.5943202416918" height="142.5943202416918" width="395.52"><g transform="matrix(1,0,0,1,0,0)"><svg width="395.52" viewBox="5.25 -35.4 99.3 35.8" height="142.5943202416918" data-palette-color="#f4f3f0"><path d="M5.25 0L5.25-35 10.25-35 10.25-4.35 29.2-4.35 29.2 0 5.25 0ZM60.05-35L65.05-35 65.05 0 60.05 0 60.05-15.6 39.95-15.6 39.95 0 34.95 0 34.95-35 39.95-35 39.95-19.95 60.05-19.95 60.05-35ZM91.2 0.4Q85.95 0.4 81.72-1.93 77.5-4.25 75.09-8.33 72.7-12.4 72.7-17.5L72.7-17.5Q72.7-22.6 75.09-26.68 77.5-30.75 81.75-33.08 86-35.4 91.25-35.4L91.25-35.4Q95.34-35.4 98.75-34.02 102.15-32.65 104.55-29.95L104.55-29.95 101.3-26.8Q97.34-30.95 91.45-30.95L91.45-30.95Q87.55-30.95 84.4-29.2 81.25-27.45 79.47-24.38 77.7-21.3 77.7-17.5L77.7-17.5Q77.7-13.7 79.47-10.63 81.25-7.55 84.4-5.8 87.55-4.05 91.45-4.05L91.45-4.05Q97.3-4.05 101.3-8.25L101.3-8.25 104.55-5.1Q102.15-2.4 98.72-1 95.3 0.4 91.2 0.4L91.2 0.4Z" opacity="1" transform="matrix(1,0,0,1,0,0)" fill="#ffffff" class="wordmark-text-0" data-fill-palette-color="primary" id="text-0"></path></svg></g></svg></g></svg></g></svg></g><g transform="matrix(1,0,0,1,123.8604935347432,0)"><svg viewBox="0 0 147.79901293051358 147.79901293051358" height="147.79901293051358" width="147.79901293051358"><g data-palette-color="#2f84ff"><rect width="147.79901293051358" height="40.39839686767371" fill="#ffffff" stroke="transparent" data-fill-palette-color="accent" y="0" fill-opacity="0.5"></rect><rect width="147.79901293051358" height="40.39839686767371" fill="#ffffff" stroke="transparent" data-fill-palette-color="accent" y="49.26633764350453" fill-opacity="0.75"></rect><rect width="147.79901293051358" height="40.39839686767371" fill="#ffffff" stroke="transparent" data-fill-palette-color="accent" y="98.53267528700906" fill-opacity="1"></rect></g></svg></g><g></g></svg></g><defs></defs></svg><rect width="301.71456256821193" height="247.2" fill="none" stroke="none" visibility="hidden"></rect></g></svg></g></svg>